<!DOCTYPE svg PUBLIC "-//W3C//DTD SVG 20010904//EN" "http://www.w3.org/TR/2001/REC-SVG-20010904/DTD/svg10.dtd">
<svg version="1.0" xmlns="http://www.w3.org/2000/svg" width="830px" height="425px" viewBox="0 0 8300 4250" preserveAspectRatio="xMidYMid meet">
<g id="layer101" fill="#08213e" stroke="none">
 <path d="M5372 4059 c-136 -23 -248 -134 -268 -264 -10 -68 -12 -125 -4 -130 5 -3 9 -20 9 -37 3 -63 6 -73 53 -182 50 -118 134 -232 268 -367 69 -69 154 -151 190 -182 l65 -56 -81 -1 c-167 0 -286 -76 -355 -225 -41 -87 -52 -160 -46 -305 7 -148 29 -234 93 -365 75 -151 171 -262 302 -348 99 -66 181 -96 297 -109 121 -13 164 -1 191 56 l17 34 76 0 c86 0 143 18 162 54 18 32 16 162 -4 278 -17 97 -99 602 -117 720 -6 36 -27 146 -46 245 -140 709 -322 1077 -577 1165 -67 23 -158 31 -225 19z m153 -373 c18 -19 49 -67 69 -107 43 -84 116 -299 116 -338 -1 -24 -5 -22 -57 34 -75 81 -125 149 -161 221 -31 62 -55 153 -47 179 3 8 7 22 10 30 7 25 36 17 70 -19z m226 -1219 c19 -13 46 -46 62 -78 27 -53 36 -92 110 -469 8 -42 11 -79 6 -84 -13 -14 -72 17 -124 65 -64 59 -114 140 -147 238 -25 72 -30 104 -31 194 -2 107 -2 109 26 133 35 30 55 30 98 1z"/>
 <path d="M7179 2966 c-196 -43 -289 -255 -168 -383 53 -56 100 -73 202 -73 53 0 87 -4 87 -10 0 -32 -103 -210 -121 -210 -4 0 -19 21 -35 48 -79 137 -264 355 -340 403 -47 29 -122 29 -162 0 -40 -28 -65 -93 -58 -146 8 -52 29 -85 159 -255 138 -179 191 -270 294 -500 45 -102 96 -202 114 -224 48 -58 121 -88 217 -88 178 1 206 50 132 233 -63 158 -62 166 68 347 164 228 175 255 170 406 -3 103 -6 116 -39 186 -66 138 -173 227 -315 264 -72 19 -126 19 -205 2z"/>
 <path d="M744 2839 c-50 -14 -90 -59 -108 -120 -20 -65 -17 -88 35 -304 55 -232 99 -425 99 -436 0 -5 -31 -9 -68 -9 -165 0 -242 -79 -214 -219 24 -112 89 -157 255 -172 56 -6 105 -13 109 -17 9 -10 33 -157 53 -327 22 -177 17 -304 -12 -342 -77 -104 -274 4 -458 250 -86 115 -229 76 -251 -69 -15 -105 56 -237 202 -373 165 -155 344 -237 537 -248 250 -15 385 101 438 375 15 79 6 370 -16 522 -8 58 -18 126 -22 153 l-6 47 84 0 c78 0 210 -11 336 -26 l52 -6 11 -57 c96 -477 273 -836 491 -996 106 -78 257 -109 370 -77 102 30 195 151 220 287 14 74 5 284 -16 375 -43 182 -113 308 -245 440 -99 99 -216 181 -344 239 -51 23 -67 35 -72 57 -4 15 -4 111 -1 213 7 211 24 289 80 363 44 58 78 73 157 72 77 -1 154 -32 226 -91 25 -21 50 -37 54 -36 5 2 8 -5 8 -15 0 -9 5 -66 11 -127 16 -155 44 -287 103 -485 40 -136 118 -190 277 -190 75 0 122 29 135 83 8 31 3 65 -24 180 -38 165 -44 192 -70 347 -22 130 -27 270 -8 270 23 0 89 -86 137 -179 58 -115 105 -237 161 -426 48 -160 58 -183 102 -224 52 -49 188 -68 262 -37 66 27 68 84 15 341 -16 77 -43 205 -59 285 -51 246 -52 330 -4 330 40 0 74 -23 152 -103 71 -74 72 -76 72 -128 1 -193 103 -600 168 -672 30 -34 92 -58 162 -64 88 -7 132 2 164 34 36 36 34 96 -8 274 -68 282 -103 547 -76 564 24 15 98 -81 158 -204 51 -103 107 -257 173 -479 26 -85 65 -144 111 -168 39 -21 162 -30 200 -16 14 6 38 26 52 44 22 30 25 44 27 128 2 146 -12 343 -27 355 -23 19 -52 254 -62 506 -7 165 -9 178 -35 221 -35 61 -79 81 -184 86 -75 4 -87 1 -126 -22 -34 -19 -49 -37 -66 -75 -11 -27 -21 -56 -21 -64 0 -30 -14 -25 -43 16 -35 48 -55 67 -117 110 -38 27 -56 32 -118 35 -100 6 -164 -21 -232 -95 l-51 -55 -47 37 c-56 44 -151 90 -212 104 -72 17 -226 14 -266 -5 -49 -23 -110 -94 -131 -153 -10 -28 -20 -51 -23 -51 -4 0 -25 27 -49 60 -72 103 -166 159 -267 160 -103 0 -175 -42 -239 -140 -19 -30 -35 -49 -35 -43 0 7 5 15 11 18 24 16 -170 124 -266 150 -79 20 -245 20 -316 -1 -232 -69 -383 -265 -434 -560 -9 -55 -19 -162 -21 -239 -4 -126 -6 -140 -22 -138 -9 1 -71 9 -137 17 -66 8 -165 18 -221 21 -56 4 -106 10 -111 13 -6 4 -27 84 -48 177 -65 302 -125 539 -147 584 -30 61 -76 111 -123 132 -43 20 -137 24 -191 8z m1660 -1565 c105 -102 157 -233 173 -430 7 -94 -8 -154 -37 -154 -42 0 -125 138 -183 305 -38 111 -97 331 -97 365 l0 21 40 -22 c22 -13 69 -51 104 -85z"/>
 <path d="M6735 1213 c-43 -9 -91 -35 -109 -60 -28 -38 -30 -98 -8 -203 29 -133 52 -319 52 -417 0 -130 45 -224 133 -280 60 -38 173 -44 243 -14 96 43 124 91 124 213 0 132 -51 290 -165 517 -76 153 -98 186 -147 221 -39 29 -70 35 -123 23z"/>
 </g>
<g id="layer102" fill="#f19000" stroke="none">
 <path d="M2932 2818 c-133 -61 -220 -262 -207 -479 15 -254 43 -407 117 -659 40 -136 118 -190 277 -190 75 0 122 29 135 83 8 31 3 65 -24 180 -38 165 -44 192 -70 347 -22 130 -27 270 -8 270 23 0 89 -86 137 -179 58 -115 105 -237 161 -426 48 -160 58 -183 102 -224 52 -49 188 -68 262 -37 66 27 68 84 15 341 -16 77 -43 205 -59 285 -51 246 -52 330 -4 330 40 0 74 -23 152 -103 71 -74 72 -76 72 -128 1 -193 103 -600 168 -672 30 -34 92 -58 162 -64 88 -7 132 2 164 34 36 36 34 96 -8 274 -68 282 -103 547 -76 564 24 15 98 -81 158 -204 51 -103 107 -257 173 -479 26 -85 65 -144 111 -168 39 -21 162 -30 200 -16 14 6 38 26 52 44 22 30 25 44 27 128 2 146 -12 343 -27 355 -23 19 -52 254 -62 506 -7 165 -9 178 -35 221 -35 61 -79 81 -184 86 -75 4 -87 1 -126 -22 -34 -19 -49 -37 -66 -75 -11 -27 -21 -56 -21 -64 0 -30 -14 -25 -43 16 -35 48 -55 67 -117 110 -38 27 -56 32 -118 35 -100 6 -164 -21 -232 -95 l-51 -55 -47 37 c-56 44 -151 90 -212 104 -72 17 -226 14 -266 -5 -49 -23 -110 -94 -131 -153 -10 -28 -20 -51 -23 -51 -4 0 -25 27 -49 60 -44 64 -99 110 -166 141 -54 25 -155 24 -213 -3z"/>
 </g>

</svg>